<mxfile host="app.diagrams.net" modified="2024-04-11T15:03:27.368Z" agent="Mozilla/5.0 (Windows NT 10.0; Win64; x64) AppleWebKit/537.36 (KHTML, like Gecko) Chrome/123.0.0.0 Safari/537.36 Edg/123.0.0.0" etag="0k43SsUY-3S6oRf23F7P" version="24.2.3" type="github">
  <diagram name="Page-1" id="BUNKWT5Qqu0lzgFFmWvQ">
    <mxGraphModel dx="1282" dy="535" grid="1" gridSize="10" guides="1" tooltips="1" connect="1" arrows="1" fold="1" page="1" pageScale="1" pageWidth="1654" pageHeight="1169" math="0" shadow="0">
      <root>
        <mxCell id="0" />
        <mxCell id="1" parent="0" />
        <mxCell id="BMht20Ln3k7jBjvpvkgt-17" value="INTERVENTION" style="rounded=1;whiteSpace=wrap;html=1;fillColor=#dae8fc;strokeColor=none;" vertex="1" parent="1">
          <mxGeometry x="1430" y="90" width="120" height="40" as="geometry" />
        </mxCell>
        <mxCell id="BMht20Ln3k7jBjvpvkgt-1" value="intervention_id" style="rounded=0;whiteSpace=wrap;html=1;" vertex="1" parent="1">
          <mxGeometry x="50" y="90" width="90" height="40" as="geometry" />
        </mxCell>
        <mxCell id="BMht20Ln3k7jBjvpvkgt-2" value="start_date" style="rounded=0;whiteSpace=wrap;html=1;" vertex="1" parent="1">
          <mxGeometry x="140" y="90" width="70" height="40" as="geometry" />
        </mxCell>
        <mxCell id="BMht20Ln3k7jBjvpvkgt-3" value="end_date" style="rounded=0;whiteSpace=wrap;html=1;" vertex="1" parent="1">
          <mxGeometry x="210" y="90" width="70" height="40" as="geometry" />
        </mxCell>
        <mxCell id="BMht20Ln3k7jBjvpvkgt-4" value="event_name" style="rounded=0;whiteSpace=wrap;html=1;" vertex="1" parent="1">
          <mxGeometry x="280" y="90" width="80" height="40" as="geometry" />
        </mxCell>
        <mxCell id="BMht20Ln3k7jBjvpvkgt-5" value="event_venue" style="rounded=0;whiteSpace=wrap;html=1;" vertex="1" parent="1">
          <mxGeometry x="360" y="90" width="80" height="40" as="geometry" />
        </mxCell>
        <mxCell id="BMht20Ln3k7jBjvpvkgt-6" value="event_details" style="rounded=0;whiteSpace=wrap;html=1;" vertex="1" parent="1">
          <mxGeometry x="440" y="90" width="80" height="40" as="geometry" />
        </mxCell>
        <mxCell id="BMht20Ln3k7jBjvpvkgt-7" value="event_status" style="rounded=0;whiteSpace=wrap;html=1;" vertex="1" parent="1">
          <mxGeometry x="520" y="90" width="80" height="40" as="geometry" />
        </mxCell>
        <mxCell id="BMht20Ln3k7jBjvpvkgt-8" value="organizer_id" style="rounded=0;whiteSpace=wrap;html=1;" vertex="1" parent="1">
          <mxGeometry x="600" y="90" width="80" height="40" as="geometry" />
        </mxCell>
        <mxCell id="BMht20Ln3k7jBjvpvkgt-9" value="organizer_username" style="rounded=0;whiteSpace=wrap;html=1;" vertex="1" parent="1">
          <mxGeometry x="680" y="90" width="120" height="40" as="geometry" />
        </mxCell>
        <mxCell id="BMht20Ln3k7jBjvpvkgt-10" value="organizer_emails" style="rounded=0;whiteSpace=wrap;html=1;" vertex="1" parent="1">
          <mxGeometry x="800" y="90" width="100" height="40" as="geometry" />
        </mxCell>
        <mxCell id="BMht20Ln3k7jBjvpvkgt-11" value="organizer_phone_numbers" style="rounded=0;whiteSpace=wrap;html=1;" vertex="1" parent="1">
          <mxGeometry x="900" y="90" width="150" height="40" as="geometry" />
        </mxCell>
        <mxCell id="BMht20Ln3k7jBjvpvkgt-12" value="organizer_password" style="rounded=0;whiteSpace=wrap;html=1;" vertex="1" parent="1">
          <mxGeometry x="1050" y="90" width="120" height="40" as="geometry" />
        </mxCell>
        <mxCell id="BMht20Ln3k7jBjvpvkgt-13" value="organizer_country" style="rounded=0;whiteSpace=wrap;html=1;" vertex="1" parent="1">
          <mxGeometry x="1170" y="90" width="100" height="40" as="geometry" />
        </mxCell>
        <mxCell id="BMht20Ln3k7jBjvpvkgt-14" value="organizer_city" style="rounded=0;whiteSpace=wrap;html=1;" vertex="1" parent="1">
          <mxGeometry x="1270" y="90" width="80" height="40" as="geometry" />
        </mxCell>
        <mxCell id="BMht20Ln3k7jBjvpvkgt-15" value="organizer_area" style="rounded=0;whiteSpace=wrap;html=1;" vertex="1" parent="1">
          <mxGeometry x="1350" y="90" width="86" height="40" as="geometry" />
        </mxCell>
        <mxCell id="BMht20Ln3k7jBjvpvkgt-18" value="&lt;b&gt;1 NF&lt;/b&gt;" style="text;html=1;align=center;verticalAlign=middle;resizable=0;points=[];autosize=1;strokeColor=none;fillColor=none;" vertex="1" parent="1">
          <mxGeometry x="50" y="240" width="50" height="30" as="geometry" />
        </mxCell>
        <mxCell id="BMht20Ln3k7jBjvpvkgt-19" value="INTERVENTION" style="rounded=1;whiteSpace=wrap;html=1;fillColor=#dae8fc;strokeColor=none;" vertex="1" parent="1">
          <mxGeometry x="1430" y="270" width="120" height="40" as="geometry" />
        </mxCell>
        <mxCell id="BMht20Ln3k7jBjvpvkgt-20" value="intervention_id" style="rounded=0;whiteSpace=wrap;html=1;fontStyle=5" vertex="1" parent="1">
          <mxGeometry x="50" y="270" width="90" height="40" as="geometry" />
        </mxCell>
        <mxCell id="BMht20Ln3k7jBjvpvkgt-21" value="start_date" style="rounded=0;whiteSpace=wrap;html=1;" vertex="1" parent="1">
          <mxGeometry x="140" y="270" width="70" height="40" as="geometry" />
        </mxCell>
        <mxCell id="BMht20Ln3k7jBjvpvkgt-22" value="end_date" style="rounded=0;whiteSpace=wrap;html=1;" vertex="1" parent="1">
          <mxGeometry x="210" y="270" width="70" height="40" as="geometry" />
        </mxCell>
        <mxCell id="BMht20Ln3k7jBjvpvkgt-23" value="event_name" style="rounded=0;whiteSpace=wrap;html=1;" vertex="1" parent="1">
          <mxGeometry x="280" y="270" width="80" height="40" as="geometry" />
        </mxCell>
        <mxCell id="BMht20Ln3k7jBjvpvkgt-24" value="event_venue" style="rounded=0;whiteSpace=wrap;html=1;" vertex="1" parent="1">
          <mxGeometry x="360" y="270" width="80" height="40" as="geometry" />
        </mxCell>
        <mxCell id="BMht20Ln3k7jBjvpvkgt-25" value="event_details" style="rounded=0;whiteSpace=wrap;html=1;" vertex="1" parent="1">
          <mxGeometry x="440" y="270" width="80" height="40" as="geometry" />
        </mxCell>
        <mxCell id="BMht20Ln3k7jBjvpvkgt-26" value="event_status" style="rounded=0;whiteSpace=wrap;html=1;" vertex="1" parent="1">
          <mxGeometry x="520" y="270" width="80" height="40" as="geometry" />
        </mxCell>
        <mxCell id="BMht20Ln3k7jBjvpvkgt-27" value="organizer_id" style="rounded=0;whiteSpace=wrap;html=1;fontStyle=5" vertex="1" parent="1">
          <mxGeometry x="600" y="270" width="80" height="40" as="geometry" />
        </mxCell>
        <mxCell id="BMht20Ln3k7jBjvpvkgt-28" value="organizer_username" style="rounded=0;whiteSpace=wrap;html=1;" vertex="1" parent="1">
          <mxGeometry x="680" y="270" width="120" height="40" as="geometry" />
        </mxCell>
        <mxCell id="BMht20Ln3k7jBjvpvkgt-29" value="organizer_emails" style="rounded=0;whiteSpace=wrap;html=1;" vertex="1" parent="1">
          <mxGeometry x="800" y="270" width="100" height="40" as="geometry" />
        </mxCell>
        <mxCell id="BMht20Ln3k7jBjvpvkgt-30" value="organizer_phone_numbers" style="rounded=0;whiteSpace=wrap;html=1;" vertex="1" parent="1">
          <mxGeometry x="900" y="270" width="150" height="40" as="geometry" />
        </mxCell>
        <mxCell id="BMht20Ln3k7jBjvpvkgt-31" value="organizer_password" style="rounded=0;whiteSpace=wrap;html=1;" vertex="1" parent="1">
          <mxGeometry x="1050" y="270" width="120" height="40" as="geometry" />
        </mxCell>
        <mxCell id="BMht20Ln3k7jBjvpvkgt-32" value="organizer_country" style="rounded=0;whiteSpace=wrap;html=1;" vertex="1" parent="1">
          <mxGeometry x="1170" y="270" width="100" height="40" as="geometry" />
        </mxCell>
        <mxCell id="BMht20Ln3k7jBjvpvkgt-33" value="organizer_city" style="rounded=0;whiteSpace=wrap;html=1;" vertex="1" parent="1">
          <mxGeometry x="1270" y="270" width="80" height="40" as="geometry" />
        </mxCell>
        <mxCell id="BMht20Ln3k7jBjvpvkgt-34" value="organizer_area" style="rounded=0;whiteSpace=wrap;html=1;" vertex="1" parent="1">
          <mxGeometry x="1350" y="270" width="86" height="40" as="geometry" />
        </mxCell>
      </root>
    </mxGraphModel>
  </diagram>
</mxfile>
